<svg width="124" height="124" viewBox="0 0 124 124" fill="none" xmlns="http://www.w3.org/2000/svg">
<rect width="123.767" height="123.77" fill="#FF669E"/>
<path d="M81.0447 62.6729H103.655C108.722 62.6729 112.928 64.7761 112.928 70.9425V72.7589C112.928 77.3479 109.773 79.0687 107.67 79.5467C110.347 79.7857 114.267 81.4588 114.267 87.5295V89.5372C114.267 96.6118 108.817 98.5238 103.32 98.5238H81.0447V62.6729ZM97.7752 91.0668C100.5 91.0668 101.886 89.8718 101.886 87.5295C101.886 85.0439 100.5 84.04 97.7752 84.04H93.3297V91.0668H97.7752ZM96.867 76.9176C99.9263 76.9176 101.073 75.6748 101.073 73.4281C101.073 71.1815 99.9263 69.9386 96.867 69.9386H93.3297V76.9176H96.867Z" fill="black" fill-opacity="0.6"/>
<path d="M60.4958 99.0974C50.9355 99.0974 46.5856 94.6997 46.5856 86.4779V62.6729H59.2529V84.9483C59.2529 87.6729 60.1134 90.302 63.7463 90.302C67.427 90.302 68.2874 87.6729 68.2874 84.9483V62.6729H80.0943V86.4779C80.0943 94.7475 75.7922 99.0974 66.9967 99.0974H60.4958Z" fill="black" fill-opacity="0.6"/>
<path d="M32.988 62.6729H45.6075V98.5238H32.988V84.7093H24.5272V98.5238H11.8598V62.6729H24.5272V75.866H32.988V62.6729Z" fill="black" fill-opacity="0.6"/>
<path d="M73.8507 55.3136C75.7628 55.3136 76.4798 53.7839 76.4798 51.7285V51.6329H88.3823V52.3021C88.3823 57.8949 84.5104 61.0019 76.4798 61.0019H71.0782C61.7092 61.0019 59.0801 55.7916 59.0801 48.1434V46.3269C59.0801 38.5353 61.7092 33.4684 70.6958 33.4684H76.7666C85.7532 33.4684 88.3823 37.4359 88.3823 44.6539V49.434H70.9348C70.9348 53.6405 71.5563 55.3136 73.8507 55.3136ZM73.7551 38.5353C71.4607 38.5353 70.9348 40.1606 70.9348 43.2199H76.671C76.671 40.1606 76.193 38.5353 73.7551 38.5353Z" fill="black" fill-opacity="0.6"/>
<path d="M35.3845 24.6729H47.6694V51.7762H59.7631V60.5238H35.3845V24.6729Z" fill="black" fill-opacity="0.6"/>
</svg>
